<svg xmlns="http://www.w3.org/2000/svg" width="24" height="24" viewBox="0 0 1024 1024">
  <path 
    fill="#c0392b"
    fill-rule="evenodd"
    d="
      M512 0
      C229.232 0 0 229.232 0 512
      c0 282.784 229.232 512 512 512
      c282.784 0 512-229.216 512-512
      C1024 229.232 794.784 0 512 0
      Z

      M738 331
      c-12-12-33-12-45 0
      L512 512
      L331 331
      c-12-12-33-12-45 0
      c-12 12-12 33 0 45
      l181 181
      L286 738
      c-12 12-12 33 0 45
      c12 12 33 12 45 0
      l181-181
      l181 181
      c12 12 33 12 45 0
      c12-12 12-33 0-45
      L557 557
      l181-181
      c12-12 12-33 0-45
      Z
    "
  />
</svg>

